<svg width="149" height="26" viewBox="0 0 149 26" fill="none" xmlns="http://www.w3.org/2000/svg">
<line y1="11.5" x2="40" y2="11.5" stroke="#EA625C" stroke-width="3"/>
<path d="M53.3594 16.1172H58.3359V18H51.0156V6.625H53.3594V16.1172ZM66.5312 13.0703H62.0312V16.1172H67.3125V18H59.6875V6.625H67.2969V8.52344H62.0312V11.2344H66.5312V13.0703ZM75.1094 15.6562H71L70.2188 18H67.7266L71.9609 6.625H74.1328L78.3906 18H75.8984L75.1094 15.6562ZM71.6328 13.7578H74.4766L73.0469 9.5L71.6328 13.7578ZM83.6641 13.8359H81.7969V18H79.4531V6.625H83.6797C85.0234 6.625 86.0599 6.92448 86.7891 7.52344C87.5182 8.1224 87.8828 8.96875 87.8828 10.0625C87.8828 10.8385 87.7135 11.487 87.375 12.0078C87.0417 12.5234 86.5339 12.9349 85.8516 13.2422L88.3125 17.8906V18H85.7969L83.6641 13.8359ZM81.7969 11.9375H83.6875C84.276 11.9375 84.7318 11.7891 85.0547 11.4922C85.3776 11.1901 85.5391 10.776 85.5391 10.25C85.5391 9.71354 85.3854 9.29167 85.0781 8.98438C84.776 8.67708 84.3099 8.52344 83.6797 8.52344H81.7969V11.9375ZM98.9219 18H96.5781L92.0156 10.5156V18H89.6719V6.625H92.0156L96.5859 14.125V6.625H98.9219V18ZM108.016 6.625L110.938 14.875L113.844 6.625H116.922V18H114.57V14.8906L114.805 9.52344L111.734 18H110.125L107.062 9.53125L107.297 14.8906V18H104.953V6.625H108.016ZM128.312 12.5703C128.312 13.6901 128.115 14.6719 127.719 15.5156C127.323 16.3594 126.755 17.0104 126.016 17.4688C125.281 17.9271 124.438 18.1562 123.484 18.1562C122.542 18.1562 121.701 17.9297 120.961 17.4766C120.221 17.0234 119.648 16.3776 119.242 15.5391C118.836 14.6953 118.63 13.7266 118.625 12.6328V12.0703C118.625 10.9505 118.826 9.96615 119.227 9.11719C119.633 8.26302 120.203 7.60938 120.938 7.15625C121.677 6.69792 122.521 6.46875 123.469 6.46875C124.417 6.46875 125.258 6.69792 125.992 7.15625C126.732 7.60938 127.302 8.26302 127.703 9.11719C128.109 9.96615 128.312 10.9479 128.312 12.0625V12.5703ZM125.938 12.0547C125.938 10.862 125.724 9.95573 125.297 9.33594C124.87 8.71615 124.26 8.40625 123.469 8.40625C122.682 8.40625 122.076 8.71354 121.648 9.32812C121.221 9.9375 121.005 10.8333 121 12.0156V12.5703C121 13.7318 121.214 14.6328 121.641 15.2734C122.068 15.9141 122.682 16.2344 123.484 16.2344C124.271 16.2344 124.875 15.9271 125.297 15.3125C125.719 14.6927 125.932 13.7917 125.938 12.6094V12.0547ZM134.227 13.8359H132.359V18H130.016V6.625H134.242C135.586 6.625 136.622 6.92448 137.352 7.52344C138.081 8.1224 138.445 8.96875 138.445 10.0625C138.445 10.8385 138.276 11.487 137.938 12.0078C137.604 12.5234 137.096 12.9349 136.414 13.2422L138.875 17.8906V18H136.359L134.227 13.8359ZM132.359 11.9375H134.25C134.839 11.9375 135.294 11.7891 135.617 11.4922C135.94 11.1901 136.102 10.776 136.102 10.25C136.102 9.71354 135.948 9.29167 135.641 8.98438C135.339 8.67708 134.872 8.52344 134.242 8.52344H132.359V11.9375ZM147.078 13.0703H142.578V16.1172H147.859V18H140.234V6.625H147.844V8.52344H142.578V11.2344H147.078V13.0703Z" fill="#EA625C"/>
</svg>
